<?xml version="1.0" encoding="UTF-8"?><svg id="Capa_1" xmlns="http://www.w3.org/2000/svg" viewBox="154.69 149.7 4967.06 561.06"><defs><style>.cls-1{fill:#e8960c;}.cls-2{fill:#161513;}</style></defs><polygon class="cls-1" points="515.84 520.25 515.84 700.82 335.27 700.82 515.84 520.25"/><polygon class="cls-2" points="696.41 159.11 515.84 159.11 335.27 159.11 154.69 339.68 154.69 339.68 154.69 520.25 154.69 520.25 154.69 700.82 335.27 700.82 335.27 520.25 335.27 339.68 515.84 339.68 696.41 339.68 696.41 520.25 696.41 700.82 876.98 700.82 876.98 520.25 876.98 339.68 876.98 159.11 696.41 159.11"/><path class="cls-2" d="M1264.21,710.26c-61.35,0-113.8-10.48-157.32-31.46-43.53-20.97-76.83-52.31-99.9-94-23.08-41.69-34.61-93.21-34.61-154.57s11.53-113.53,34.61-154.96c23.07-41.42,56.37-72.63,99.9-93.61,43.52-20.97,95.97-31.46,157.32-31.46s114.58,10.5,158.11,31.46c43.52,20.98,76.82,52.19,99.9,93.61,23.07,41.43,34.61,93.09,34.61,154.96s-11.54,112.88-34.61,154.57c-23.08,41.69-56.38,73.03-99.9,94-43.54,20.98-96.24,31.46-158.11,31.46ZM1264.21,580.47c18.88,0,35.52-3.01,49.95-9.05,14.42-6.02,26.48-14.55,36.18-25.56,9.7-11.01,16.91-24.25,21.63-39.72,4.72-15.46,7.08-32.37,7.08-50.74v-50.34c0-18.35-2.36-35.26-7.08-50.74-4.72-15.46-11.93-28.71-21.63-39.72-9.71-11.01-21.77-19.53-36.18-25.57-14.43-6.02-31.07-9.05-49.95-9.05s-35.53,3.02-49.95,9.05c-14.43,6.03-26.35,14.55-35.79,25.57-9.44,11.01-16.52,24.26-21.24,39.72-4.72,15.47-7.08,32.39-7.08,50.74v50.34c0,18.36,2.36,35.27,7.08,50.74,4.72,15.47,11.8,28.71,21.24,39.72,9.44,11.01,21.36,19.54,35.79,25.56,14.42,6.03,31.07,9.05,49.95,9.05Z"/><path class="cls-2" d="M1650.44,700.82V159.63h147.88l168.34,194.29c4.72,5.25,11.01,12.86,18.88,22.81,7.87,9.97,15.86,20.06,23.99,30.28,8.12,10.23,14.28,18.49,18.49,24.78l3.93-1.57c-.53-14.68-.79-29.23-.79-43.66v-226.94h158.11v541.19h-147.1l-189.57-216.32c-8.92-10.48-16.52-20.06-22.81-28.71s-12.33-16.91-18.09-24.78l-3.93,1.57c.52,9.97.79,19.94.79,29.89v238.34h-158.11Z"/><path class="cls-2" d="M2443.34,700.82v-402.75h-177.77v-138.44h528.61v138.44h-176.99v402.75h-173.84Z"/><path class="cls-2" d="M2760.34,700.82l197.44-541.19h202.16l197.44,541.19h-184.07l-22.81-76.3h-189.57l-22.81,76.3h-177.77ZM2997.12,503.38h117.99l-25.96-86.53c-2.1-6.29-4.46-13.89-7.08-22.81-2.63-8.91-5.25-18.35-7.87-28.32-2.63-9.96-5.25-19.79-7.87-29.5-2.63-9.7-4.99-18.22-7.08-25.57h-6.29c-2.1,9.44-4.85,20.19-8.26,32.25-3.42,12.07-6.96,24.52-10.62,37.36-3.67,12.86-7.35,25.05-11.01,36.58l-25.96,86.53Z"/><path class="cls-2" d="M3422.68,700.82V159.63h147.88l168.34,194.29c4.72,5.25,11.01,12.86,18.88,22.81,7.87,9.97,15.86,20.06,23.99,30.28,8.12,10.23,14.28,18.49,18.49,24.78l3.93-1.57c-.53-14.68-.79-29.23-.79-43.66v-226.94h158.11v541.19h-147.1l-189.57-216.32c-8.92-10.48-16.52-20.06-22.81-28.71-6.29-8.65-12.33-16.91-18.09-24.78l-3.93,1.57c.52,9.97.79,19.94.79,29.89v238.34h-158.11Z"/><path class="cls-2" d="M4215.58,700.82v-402.75h-177.77v-138.44h528.61v138.44h-176.99v402.75h-173.84Z"/><path class="cls-2" d="M4648.21,700.82V159.63h468.04v129.79h-294.19v74.73h251.72v124.29h-251.72v82.59h299.7v129.79h-473.54Z"/></svg>